<?xml version="1.0" encoding="utf-8"?>
<!-- Generator: Adobe Illustrator 25.0.1, SVG Export Plug-In . SVG Version: 6.00 Build 0)  -->
<svg version="1.1" id="Artwork" xmlns="http://www.w3.org/2000/svg" xmlns:xlink="http://www.w3.org/1999/xlink" x="0px" y="0px"
	 viewBox="0 0 464.93 196.22" style="enable-background:new 0 0 464.93 196.22;" xml:space="preserve">
<style type="text/css">
	.st0{fill:#124E3B;}
</style>
<g>
	<path class="st0" d="M412.25,132.67v-29.45c0-8.59-2.52-15.64-7.65-20.03c-1.75-1.5-3.79-2.69-6.16-3.53
		c-2.63-0.94-5.64-1.44-9.04-1.44c-3.16,0-6.11,0.48-8.82,1.44c-7.4,2.58-12.98,8.63-16.04,17.67l-0.57-17.67h-26v2.59
		c5.75,3.59,9.34,5.89,9.34,14.37v34.69c0,8.18-3.07,13.21-9.66,13.21c-6.6,0-9.72-5.03-9.72-13.21c0-9.63,0.43-18.18,0.43-28.81
		c0-8.83-2.84-15.19-8.57-19.19c-0.25-0.18-0.51-0.35-0.77-0.51c-4.84-3.07-11.59-4.58-20.26-4.58c-8.62,0-15.6,1.74-20.59,4.58
		c-5.64,3.21-8.72,7.84-8.72,12.95c0,5.89,3.88,9.19,9.78,9.19c2.65,0,6.02-0.81,7.96-2.18c0.37-0.26,0.69-0.54,0.94-0.84
		c-1.86-1.58-3.45-3.44-3.45-7.47c0-6.61,4.6-10.34,12.35-10.34c10.35,0,13.94,5.6,13.94,16.81v7.33l-11.35,2.01
		c-16.95,3.02-33.62,7.61-33.62,23.27c0,11.92,9.48,17.95,20.98,17.95c11.92,0,21.26-6.17,24.28-15.37
		c1,10.77,5.74,13.94,15.51,13.94h45.68v-2.59c-6.18-4.16-7.9-5.31-7.9-14.8V112.7c0-15.23,7.76-22.99,17.24-22.99
		c9.63,0,13.22,7.19,13.22,15.95v27.01c0,9.48-1.72,10.63-7.9,14.8v2.59h33.04v-2.59C413.98,143.3,412.25,142.15,412.25,132.67z
		 M310.98,121.32c0,13.79-7.9,20.98-16.37,20.98c-7.05,0-11.21-4.02-11.21-11.21c0-9.48,6.18-13.22,18.39-15.8l9.2-2.01V121.32z"/>
	<path class="st0" d="M137.59,66.58c6.18,0,11.06-4.74,11.06-10.77c0-6.03-4.89-10.78-11.06-10.78c-6.18,0-10.92,4.74-10.92,10.78
		C126.67,61.84,131.41,66.58,137.59,66.58z"/>
	<path class="st0" d="M262.13,147.46v2.59h-33.04v-2.59c6.18-4.16,7.9-5.31,7.9-14.8V97c0-5-0.25-11.83-6.03-11.83
		c-6.73,0-10.45,8.45-11.92,11.44l-26.86,54.88h-1.15l-3-6.15l-15.33-31.42l-7.74-15.87c-4.67-9.69-7.79-12.81-12.42-15.8v-2.59
		h31.46v2.59c-3.45,2.58-4.4,3.74-4.4,6.03c0,2.01,1.01,4.59,2.73,8.34l5.71,11.84l9.18,19.04l13.78-30.02
		c1.73-3.74,2.3-5.6,2.3-7.47c0-2.88-2.58-5.17-6.6-7.76v-2.59h47.55v53.01C254.24,142.15,255.96,143.3,262.13,147.46z"/>
	<path class="st0" d="M154.83,147.46v2.59h-33.04v-2.59c6.18-4.16,7.9-5.31,7.9-14.8V97c0-5-0.25-11.83-6.03-11.83
		c-6.73,0-10.45,8.45-11.92,11.44l-26.86,54.88h-1.15l-3-6.15l-15.33-31.42l-7.74-15.87c-4.67-9.69-7.79-12.81-12.42-15.8v-2.59
		h31.46v2.59c-3.45,2.58-4.4,3.74-4.4,6.03c0,2.01,1.01,4.59,2.73,8.34l5.71,11.84l9.18,19.04l13.78-30.02
		c1.73-3.74,2.3-5.6,2.3-7.47c0-2.88-2.58-5.17-6.6-7.76v-2.59h47.55v53.01C146.93,142.15,148.65,143.3,154.83,147.46z"/>
	<path class="st0" d="M244.9,66.58c6.18,0,11.06-4.74,11.06-10.77c0-6.03-4.89-10.78-11.06-10.78c-6.18,0-10.92,4.74-10.92,10.78
		C233.98,61.84,238.72,66.58,244.9,66.58z"/>
</g>
</svg>
